<svg xmlns="http://www.w3.org/2000/svg" xmlns:xlink="http://www.w3.org/1999/xlink" width="324" zoomAndPan="magnify" viewBox="0 0 242.87999 242.999999" height="324" preserveAspectRatio="xMidYMid meet" version="1.0"><defs><clipPath id="c76b2cc99f"><path d="M 0 0.0585938 L 242.761719 0.0585938 L 242.761719 242.9375 L 0 242.9375 Z M 0 0.0585938 " clip-rule="nonzero"/></clipPath><clipPath id="35fbedd447"><path d="M 121.441406 0.0585938 C 54.371094 0.0585938 0 54.429688 0 121.5 C 0 188.570312 54.371094 242.941406 121.441406 242.941406 C 188.507812 242.941406 242.878906 188.570312 242.878906 121.5 C 242.878906 54.429688 188.507812 0.0585938 121.441406 0.0585938 Z M 121.441406 0.0585938 " clip-rule="nonzero"/></clipPath><clipPath id="b79d377a59"><path d="M 20.238281 20.300781 L 222.640625 20.300781 L 222.640625 222.699219 L 20.238281 222.699219 Z M 20.238281 20.300781 " clip-rule="nonzero"/></clipPath></defs><g clip-path="url(#c76b2cc99f)"><g clip-path="url(#35fbedd447)"><path fill="#71b1ca" d="M 0 0.0585938 L 242.878906 0.0585938 L 242.878906 242.941406 L 0 242.941406 Z M 0 0.0585938 " fill-opacity="1" fill-rule="nonzero"/></g></g><g clip-path="url(#b79d377a59)"><path fill="#ffffff" d="M 121.441406 20.300781 C 65.617188 20.300781 20.238281 65.679688 20.238281 121.5 C 20.238281 177.320312 65.617188 222.699219 121.441406 222.699219 C 177.261719 222.699219 222.640625 177.320312 222.640625 121.5 C 222.640625 65.679688 177.261719 20.300781 121.441406 20.300781 Z M 121.441406 214.886719 C 69.949219 214.886719 28.050781 172.992188 28.050781 121.5 C 28.050781 70.007812 69.949219 28.113281 121.441406 28.113281 C 172.929688 28.113281 214.828125 70.007812 214.828125 121.5 C 214.828125 172.992188 172.929688 214.886719 121.441406 214.886719 Z M 121.441406 214.886719 " fill-opacity="1" fill-rule="nonzero"/></g><path fill="#ffffff" d="M 91.28125 69.929688 C 87.519531 69.929688 84.480469 73.003906 84.480469 76.730469 L 84.480469 96.199219 C 84.480469 99.964844 87.558594 103 91.28125 103 C 95.007812 103 98.082031 99.925781 98.082031 96.199219 L 98.082031 76.730469 C 98.082031 73.003906 95.046875 69.929688 91.28125 69.929688 Z M 91.28125 69.929688 " fill-opacity="1" fill-rule="nonzero"/><path fill="#ffffff" d="M 151.597656 69.929688 C 147.832031 69.929688 144.796875 73.003906 144.796875 76.730469 L 144.796875 96.199219 C 144.796875 99.964844 147.875 103 151.597656 103 C 155.320312 103 158.398438 99.925781 158.398438 96.199219 L 158.398438 76.730469 C 158.398438 73.003906 155.363281 69.929688 151.597656 69.929688 Z M 151.597656 69.929688 " fill-opacity="1" fill-rule="nonzero"/><path fill="#ffffff" d="M 133.097656 161.371094 C 133.097656 162.136719 133.023438 162.894531 132.875 163.648438 C 132.726562 164.398438 132.503906 165.128906 132.210938 165.835938 C 131.917969 166.542969 131.558594 167.214844 131.132812 167.851562 C 130.707031 168.484375 130.226562 169.074219 129.683594 169.617188 C 129.140625 170.15625 128.554688 170.640625 127.917969 171.066406 C 127.28125 171.492188 126.609375 171.851562 125.902344 172.144531 C 125.195312 172.4375 124.464844 172.65625 123.714844 172.808594 C 122.964844 172.957031 122.207031 173.03125 121.441406 173.03125 C 120.675781 173.03125 119.917969 172.957031 119.164062 172.808594 C 118.414062 172.65625 117.6875 172.4375 116.980469 172.144531 C 116.269531 171.851562 115.597656 171.492188 114.964844 171.066406 C 114.328125 170.640625 113.738281 170.15625 113.195312 169.617188 C 112.65625 169.074219 112.171875 168.484375 111.746094 167.851562 C 111.320312 167.214844 110.960938 166.542969 110.667969 165.835938 C 110.375 165.128906 110.15625 164.398438 110.003906 163.648438 C 109.855469 162.894531 109.78125 162.136719 109.78125 161.371094 C 109.78125 160.605469 109.855469 159.847656 110.003906 159.097656 C 110.15625 158.347656 110.375 157.617188 110.667969 156.910156 C 110.960938 156.203125 111.320312 155.53125 111.746094 154.894531 C 112.171875 154.257812 112.65625 153.671875 113.195312 153.128906 C 113.738281 152.589844 114.328125 152.105469 114.964844 151.679688 C 115.597656 151.253906 116.269531 150.894531 116.980469 150.601562 C 117.6875 150.308594 118.414062 150.089844 119.164062 149.9375 C 119.917969 149.789062 120.675781 149.714844 121.441406 149.714844 C 122.207031 149.714844 122.964844 149.789062 123.714844 149.9375 C 124.464844 150.089844 125.195312 150.308594 125.902344 150.601562 C 126.609375 150.894531 127.28125 151.253906 127.917969 151.679688 C 128.554688 152.105469 129.140625 152.589844 129.683594 153.128906 C 130.226562 153.671875 130.707031 154.257812 131.132812 154.894531 C 131.558594 155.53125 131.917969 156.203125 132.210938 156.910156 C 132.503906 157.617188 132.726562 158.347656 132.875 159.097656 C 133.023438 159.847656 133.097656 160.605469 133.097656 161.371094 Z M 133.097656 161.371094 " fill-opacity="1" fill-rule="nonzero"/></svg>