<svg xmlns="http://www.w3.org/2000/svg" xmlns:xlink="http://www.w3.org/1999/xlink" width="324" zoomAndPan="magnify" viewBox="0 0 242.87999 242.999999" height="324" preserveAspectRatio="xMidYMid meet" version="1.0"><defs><clipPath id="2074076dcc"><path d="M 0 0.0585938 L 242.761719 0.0585938 L 242.761719 242.9375 L 0 242.9375 Z M 0 0.0585938 " clip-rule="nonzero"/></clipPath><clipPath id="e5961ea408"><path d="M 121.441406 0.0585938 C 54.371094 0.0585938 0 54.429688 0 121.5 C 0 188.570312 54.371094 242.941406 121.441406 242.941406 C 188.507812 242.941406 242.878906 188.570312 242.878906 121.5 C 242.878906 54.429688 188.507812 0.0585938 121.441406 0.0585938 Z M 121.441406 0.0585938 " clip-rule="nonzero"/></clipPath><clipPath id="3a6c552f04"><path d="M 27.921875 27.980469 L 215 27.980469 L 215 215.390625 L 27.921875 215.390625 Z M 27.921875 27.980469 " clip-rule="nonzero"/></clipPath></defs><g clip-path="url(#2074076dcc)"><g clip-path="url(#e5961ea408)"><path fill="#b0cba1" d="M 0 0.0585938 L 242.878906 0.0585938 L 242.878906 242.941406 L 0 242.941406 Z M 0 0.0585938 " fill-opacity="1" fill-rule="nonzero"/></g></g><g clip-path="url(#3a6c552f04)"><path fill="#ffffff" d="M 121.4375 38.375 C 119.847656 38.371094 118.261719 38.414062 116.671875 38.503906 C 115.085938 38.59375 113.503906 38.726562 111.925781 38.90625 C 110.34375 39.089844 108.773438 39.3125 107.207031 39.582031 C 105.640625 39.851562 104.082031 40.167969 102.53125 40.527344 C 100.984375 40.886719 99.449219 41.289062 97.921875 41.738281 C 96.398438 42.183594 94.886719 42.675781 93.386719 43.210938 C 91.890625 43.742188 90.410156 44.320312 88.945312 44.9375 C 87.480469 45.558594 86.039062 46.21875 84.609375 46.917969 C 83.183594 47.621094 81.78125 48.363281 80.394531 49.144531 C 79.011719 49.925781 77.652344 50.746094 76.316406 51.609375 C 74.976562 52.46875 73.667969 53.367188 72.382812 54.300781 C 71.097656 55.234375 69.839844 56.207031 68.609375 57.214844 C 67.378906 58.222656 66.179688 59.261719 65.007812 60.339844 C 63.839844 61.414062 62.699219 62.523438 61.59375 63.664062 C 60.488281 64.804688 59.414062 65.976562 58.375 67.179688 C 57.335938 68.382812 56.332031 69.613281 55.363281 70.875 C 54.394531 72.136719 53.460938 73.421875 52.566406 74.734375 C 51.671875 76.050781 50.816406 77.386719 49.996094 78.75 C 49.179688 80.113281 48.398438 81.496094 47.660156 82.90625 C 46.921875 84.3125 46.222656 85.738281 45.566406 87.1875 C 44.910156 88.632812 44.292969 90.097656 43.71875 91.582031 C 43.148438 93.0625 42.617188 94.5625 42.128906 96.074219 C 41.640625 97.589844 41.195312 99.113281 40.796875 100.652344 C 40.398438 102.191406 40.042969 103.738281 39.730469 105.296875 C 39.417969 106.855469 39.152344 108.421875 38.929688 109.996094 C 38.707031 111.570312 38.53125 113.148438 38.402344 114.734375 C 38.269531 116.320312 38.183594 117.90625 38.144531 119.496094 C 38.105469 121.082031 38.109375 122.671875 38.160156 124.261719 C 38.210938 125.851562 38.304688 127.4375 38.449219 129.019531 C 38.589844 130.601562 38.777344 132.179688 39.007812 133.753906 C 39.242188 135.324219 39.519531 136.890625 39.839844 138.445312 C 40.160156 140.003906 40.527344 141.550781 40.9375 143.085938 C 41.347656 144.621094 41.800781 146.144531 42.300781 147.652344 C 42.796875 149.164062 43.335938 150.65625 43.921875 152.136719 C 44.503906 153.613281 45.128906 155.074219 45.796875 156.519531 C 46.460938 157.960938 47.167969 159.382812 47.917969 160.785156 C 48.667969 162.1875 49.453125 163.570312 50.28125 164.925781 C 51.109375 166.28125 51.972656 167.617188 52.878906 168.921875 C 53.78125 170.230469 54.722656 171.511719 55.699219 172.765625 C 56.675781 174.019531 57.6875 175.242188 58.738281 176.441406 C 59.785156 177.636719 60.863281 178.800781 61.976562 179.933594 C 63.09375 181.066406 64.238281 182.167969 65.414062 183.238281 C 66.59375 184.304688 67.800781 185.339844 69.035156 186.339844 C 70.273438 187.335938 71.535156 188.300781 72.828125 189.226562 C 74.117188 190.152344 75.4375 191.042969 76.777344 191.894531 C 78.121094 192.746094 79.488281 193.558594 80.875 194.328125 C 82.265625 195.101562 83.675781 195.835938 85.105469 196.527344 C 86.535156 197.21875 87.984375 197.871094 89.453125 198.480469 C 90.921875 199.089844 92.40625 199.65625 93.90625 200.179688 C 95.410156 200.703125 96.921875 201.183594 98.449219 201.621094 C 99.980469 202.058594 101.519531 202.453125 103.070312 202.800781 C 104.621094 203.148438 106.179688 203.453125 107.746094 203.714844 C 109.316406 203.972656 110.890625 204.1875 112.472656 204.359375 C 114.050781 204.527344 115.636719 204.652344 117.222656 204.730469 C 118.8125 204.808594 120.398438 204.84375 121.988281 204.828125 C 123.578125 204.816406 125.167969 204.757812 126.753906 204.65625 C 128.339844 204.554688 129.921875 204.40625 131.5 204.210938 C 133.074219 204.015625 134.648438 203.777344 136.210938 203.492188 C 137.773438 203.210938 139.328125 202.882812 140.875 202.507812 C 142.421875 202.136719 143.953125 201.71875 145.472656 201.257812 C 146.996094 200.796875 148.503906 200.292969 149.996094 199.746094 C 151.488281 199.199219 152.964844 198.609375 154.421875 197.976562 C 155.878906 197.347656 157.320312 196.671875 158.738281 195.960938 C 160.160156 195.246094 161.558594 194.492188 162.933594 193.695312 C 164.3125 192.902344 165.664062 192.070312 166.996094 191.195312 C 168.324219 190.324219 169.625 189.417969 170.902344 188.46875 C 172.179688 187.523438 173.429688 186.542969 174.652344 185.523438 C 175.871094 184.503906 177.0625 183.453125 178.222656 182.367188 C 179.382812 181.28125 180.511719 180.160156 181.609375 179.011719 C 182.703125 177.859375 183.765625 176.679688 184.796875 175.46875 C 185.824219 174.253906 186.816406 173.015625 187.777344 171.746094 C 188.734375 170.476562 189.652344 169.183594 190.539062 167.859375 C 191.421875 166.539062 192.265625 165.195312 193.070312 163.824219 C 193.878906 162.453125 194.644531 161.0625 195.371094 159.648438 C 196.097656 158.234375 196.785156 156.800781 197.429688 155.347656 C 198.074219 153.894531 198.675781 152.425781 199.234375 150.9375 C 199.796875 149.449219 200.3125 147.949219 200.785156 146.429688 C 201.261719 144.914062 201.691406 143.382812 202.078125 141.839844 C 202.464844 140.300781 202.804688 138.75 203.105469 137.1875 C 203.402344 135.625 203.65625 134.054688 203.863281 132.480469 C 204.070312 130.90625 204.234375 129.324219 204.351562 127.738281 C 204.46875 126.152344 204.539062 124.566406 204.566406 122.976562 C 204.589844 121.386719 204.570312 119.796875 204.507812 118.210938 C 204.441406 116.621094 204.332031 115.039062 204.175781 113.457031 C 204.019531 111.875 203.820312 110.296875 203.574219 108.726562 C 203.328125 107.15625 203.039062 105.59375 202.703125 104.039062 C 202.367188 102.488281 201.988281 100.945312 201.5625 99.410156 C 201.140625 97.878906 200.671875 96.359375 200.160156 94.855469 C 199.652344 93.351562 199.097656 91.859375 198.5 90.386719 C 197.90625 88.914062 197.265625 87.457031 196.585938 86.023438 C 195.90625 84.585938 195.1875 83.167969 194.425781 81.773438 C 193.667969 80.375 192.867188 79.003906 192.027344 77.652344 C 191.1875 76.304688 190.308594 74.980469 189.394531 73.679688 C 188.480469 72.378906 187.527344 71.109375 186.539062 69.863281 C 185.550781 68.617188 184.527344 67.402344 183.472656 66.214844 C 182.414062 65.027344 181.320312 63.875 180.199219 62.75 C 178.273438 60.824219 176.257812 59 174.15625 57.273438 C 172.050781 55.542969 169.867188 53.925781 167.605469 52.410156 C 165.34375 50.898438 163.011719 49.5 160.609375 48.214844 C 158.210938 46.933594 155.753906 45.769531 153.238281 44.726562 C 150.726562 43.683594 148.167969 42.765625 145.5625 41.972656 C 142.957031 41.179688 140.320312 40.519531 137.652344 39.984375 C 134.980469 39.453125 132.292969 39.050781 129.585938 38.78125 C 126.875 38.511719 124.160156 38.375 121.4375 38.375 M 121.4375 27.980469 C 122.96875 27.980469 124.5 28.019531 126.027344 28.09375 C 127.554688 28.171875 129.082031 28.28125 130.605469 28.433594 C 132.128906 28.582031 133.644531 28.769531 135.160156 28.996094 C 136.675781 29.21875 138.183594 29.480469 139.683594 29.78125 C 141.183594 30.078125 142.675781 30.414062 144.160156 30.785156 C 145.644531 31.15625 147.121094 31.566406 148.585938 32.007812 C 150.050781 32.453125 151.503906 32.933594 152.941406 33.449219 C 154.382812 33.964844 155.8125 34.515625 157.226562 35.101562 C 158.640625 35.6875 160.039062 36.304688 161.421875 36.960938 C 162.804688 37.617188 164.171875 38.304688 165.523438 39.023438 C 166.871094 39.746094 168.203125 40.5 169.515625 41.285156 C 170.828125 42.074219 172.121094 42.890625 173.394531 43.742188 C 174.667969 44.59375 175.917969 45.472656 177.144531 46.386719 C 178.375 47.296875 179.582031 48.238281 180.765625 49.210938 C 181.949219 50.179688 183.105469 51.179688 184.242188 52.207031 C 185.375 53.234375 186.484375 54.289062 187.566406 55.371094 C 188.648438 56.453125 189.703125 57.5625 190.730469 58.695312 C 191.757812 59.832031 192.757812 60.988281 193.726562 62.171875 C 194.699219 63.355469 195.640625 64.5625 196.550781 65.792969 C 197.464844 67.019531 198.34375 68.269531 199.195312 69.542969 C 200.042969 70.816406 200.863281 72.109375 201.648438 73.421875 C 202.4375 74.734375 203.191406 76.066406 203.914062 77.414062 C 204.632812 78.765625 205.320312 80.132812 205.976562 81.515625 C 206.628906 82.898438 207.25 84.296875 207.835938 85.710938 C 208.421875 87.125 208.972656 88.554688 209.488281 89.992188 C 210.003906 91.433594 210.484375 92.886719 210.929688 94.351562 C 211.371094 95.816406 211.78125 97.292969 212.152344 98.777344 C 212.523438 100.261719 212.859375 101.753906 213.15625 103.253906 C 213.457031 104.753906 213.71875 106.261719 213.941406 107.777344 C 214.167969 109.289062 214.355469 110.808594 214.503906 112.332031 C 214.65625 113.855469 214.765625 115.382812 214.84375 116.910156 C 214.917969 118.4375 214.953125 119.96875 214.953125 121.5 C 214.953125 123.027344 214.917969 124.558594 214.84375 126.085938 C 214.765625 127.617188 214.65625 129.140625 214.503906 130.664062 C 214.355469 132.1875 214.167969 133.707031 213.941406 135.21875 C 213.71875 136.734375 213.457031 138.242188 213.15625 139.742188 C 212.859375 141.242188 212.523438 142.738281 212.152344 144.222656 C 211.78125 145.707031 211.371094 147.179688 210.929688 148.644531 C 210.484375 150.109375 210.003906 151.5625 209.488281 153.003906 C 208.972656 154.445312 208.421875 155.871094 207.835938 157.285156 C 207.25 158.699219 206.628906 160.097656 205.976562 161.480469 C 205.320312 162.867188 204.632812 164.230469 203.914062 165.582031 C 203.191406 166.933594 202.4375 168.261719 201.648438 169.574219 C 200.863281 170.886719 200.042969 172.179688 199.195312 173.453125 C 198.34375 174.726562 197.464844 175.976562 196.550781 177.207031 C 195.640625 178.4375 194.699219 179.640625 193.726562 180.824219 C 192.757812 182.007812 191.757812 183.167969 190.730469 184.300781 C 189.703125 185.433594 188.648438 186.542969 187.566406 187.625 C 186.484375 188.707031 185.375 189.761719 184.242188 190.789062 C 183.105469 191.816406 181.949219 192.816406 180.765625 193.789062 C 179.582031 194.757812 178.375 195.699219 177.144531 196.613281 C 175.917969 197.523438 174.667969 198.40625 173.394531 199.253906 C 172.121094 200.105469 170.828125 200.921875 169.515625 201.710938 C 168.203125 202.496094 166.871094 203.25 165.523438 203.972656 C 164.171875 204.695312 162.804688 205.382812 161.421875 206.035156 C 160.039062 206.691406 158.640625 207.3125 157.226562 207.894531 C 155.8125 208.480469 154.382812 209.03125 152.941406 209.546875 C 151.503906 210.0625 150.050781 210.542969 148.585938 210.988281 C 147.121094 211.433594 145.644531 211.839844 144.160156 212.210938 C 142.675781 212.585938 141.183594 212.917969 139.683594 213.21875 C 138.183594 213.515625 136.675781 213.777344 135.160156 214.003906 C 133.644531 214.226562 132.128906 214.414062 130.605469 214.566406 C 129.082031 214.714844 127.554688 214.828125 126.027344 214.902344 C 124.5 214.976562 122.96875 215.015625 121.4375 215.015625 C 119.910156 215.015625 118.378906 214.976562 116.851562 214.902344 C 115.320312 214.828125 113.796875 214.714844 112.273438 214.566406 C 110.75 214.414062 109.230469 214.226562 107.71875 214.003906 C 106.203125 213.777344 104.695312 213.515625 103.195312 213.21875 C 101.695312 212.917969 100.199219 212.585938 98.714844 212.210938 C 97.230469 211.839844 95.757812 211.433594 94.292969 210.988281 C 92.828125 210.542969 91.375 210.0625 89.933594 209.546875 C 88.492188 209.03125 87.066406 208.480469 85.652344 207.894531 C 84.238281 207.3125 82.839844 206.691406 81.457031 206.035156 C 80.070312 205.382812 78.707031 204.695312 77.355469 203.972656 C 76.003906 203.25 74.675781 202.496094 73.363281 201.710938 C 72.050781 200.921875 70.757812 200.105469 69.484375 199.253906 C 68.210938 198.40625 66.960938 197.523438 65.730469 196.613281 C 64.5 195.699219 63.296875 194.757812 62.113281 193.789062 C 60.929688 192.816406 59.769531 191.816406 58.636719 190.789062 C 57.503906 189.761719 56.394531 188.707031 55.3125 187.625 C 54.230469 186.542969 53.175781 185.433594 52.148438 184.300781 C 51.121094 183.167969 50.121094 182.007812 49.148438 180.824219 C 48.179688 179.640625 47.238281 178.4375 46.324219 177.207031 C 45.414062 175.976562 44.53125 174.726562 43.683594 173.453125 C 42.832031 172.179688 42.015625 170.886719 41.226562 169.574219 C 40.441406 168.261719 39.6875 166.933594 38.964844 165.582031 C 38.242188 164.230469 37.554688 162.867188 36.902344 161.480469 C 36.246094 160.097656 35.625 158.699219 35.039062 157.285156 C 34.457031 155.871094 33.90625 154.445312 33.390625 153.003906 C 32.875 151.5625 32.394531 150.109375 31.949219 148.644531 C 31.503906 147.179688 31.097656 145.707031 30.726562 144.222656 C 30.351562 142.738281 30.019531 141.242188 29.71875 139.742188 C 29.421875 138.242188 29.160156 136.734375 28.933594 135.21875 C 28.710938 133.707031 28.523438 132.1875 28.371094 130.664062 C 28.222656 129.140625 28.109375 127.617188 28.035156 126.085938 C 27.960938 124.558594 27.921875 123.027344 27.921875 121.5 C 27.925781 119.96875 27.964844 118.441406 28.039062 116.910156 C 28.117188 115.382812 28.230469 113.859375 28.382812 112.335938 C 28.535156 110.8125 28.722656 109.296875 28.949219 107.78125 C 29.175781 106.269531 29.4375 104.761719 29.738281 103.261719 C 30.035156 101.761719 30.371094 100.269531 30.746094 98.785156 C 31.117188 97.300781 31.527344 95.828125 31.972656 94.363281 C 32.417969 92.898438 32.898438 91.449219 33.414062 90.007812 C 33.929688 88.566406 34.480469 87.140625 35.070312 85.726562 C 35.65625 84.316406 36.277344 82.917969 36.929688 81.535156 C 37.585938 80.152344 38.273438 78.785156 38.996094 77.4375 C 39.71875 76.085938 40.472656 74.757812 41.257812 73.445312 C 42.046875 72.132812 42.863281 70.839844 43.714844 69.570312 C 44.566406 68.296875 45.445312 67.046875 46.359375 65.816406 C 47.269531 64.589844 48.210938 63.382812 49.179688 62.199219 C 50.152344 61.019531 51.152344 59.859375 52.179688 58.726562 C 53.207031 57.59375 54.261719 56.484375 55.34375 55.402344 C 56.425781 54.320312 57.53125 53.265625 58.667969 52.238281 C 59.800781 51.210938 60.957031 50.210938 62.140625 49.242188 C 63.324219 48.269531 64.527344 47.328125 65.757812 46.417969 C 66.984375 45.507812 68.238281 44.625 69.507812 43.773438 C 70.78125 42.925781 72.070312 42.105469 73.382812 41.320312 C 74.695312 40.53125 76.027344 39.777344 77.375 39.054688 C 78.726562 38.332031 80.089844 37.644531 81.472656 36.992188 C 82.855469 36.335938 84.253906 35.714844 85.667969 35.128906 C 87.082031 34.542969 88.507812 33.992188 89.949219 33.476562 C 91.386719 32.957031 92.839844 32.476562 94.304688 32.03125 C 95.769531 31.585938 97.242188 31.179688 98.726562 30.804688 C 100.210938 30.433594 101.703125 30.097656 103.203125 29.796875 C 104.703125 29.496094 106.207031 29.234375 107.722656 29.007812 C 109.234375 28.78125 110.753906 28.59375 112.277344 28.441406 C 113.796875 28.289062 115.324219 28.175781 116.851562 28.101562 C 118.378906 28.023438 119.910156 27.984375 121.4375 27.980469 Z M 121.4375 27.980469 " fill-opacity="1" fill-rule="nonzero"/></g><path fill="#ffffff" d="M 100.65625 100.71875 C 100.65625 101.398438 100.589844 102.074219 100.457031 102.746094 C 100.324219 103.414062 100.128906 104.0625 99.867188 104.695312 C 99.605469 105.324219 99.285156 105.921875 98.90625 106.488281 C 98.527344 107.058594 98.097656 107.582031 97.613281 108.066406 C 97.132812 108.546875 96.605469 108.976562 96.039062 109.355469 C 95.472656 109.734375 94.875 110.054688 94.242188 110.316406 C 93.613281 110.578125 92.960938 110.773438 92.292969 110.910156 C 91.625 111.042969 90.949219 111.109375 90.265625 111.109375 C 89.585938 111.109375 88.910156 111.042969 88.238281 110.910156 C 87.570312 110.773438 86.921875 110.578125 86.289062 110.316406 C 85.660156 110.054688 85.0625 109.734375 84.492188 109.355469 C 83.925781 108.976562 83.402344 108.546875 82.917969 108.066406 C 82.4375 107.582031 82.007812 107.058594 81.628906 106.488281 C 81.246094 105.921875 80.929688 105.324219 80.667969 104.695312 C 80.40625 104.0625 80.207031 103.414062 80.074219 102.746094 C 79.941406 102.074219 79.875 101.398438 79.875 100.71875 C 79.875 100.035156 79.941406 99.359375 80.074219 98.691406 C 80.207031 98.019531 80.40625 97.371094 80.667969 96.742188 C 80.929688 96.109375 81.246094 95.511719 81.628906 94.945312 C 82.007812 94.378906 82.4375 93.851562 82.917969 93.371094 C 83.402344 92.886719 83.925781 92.457031 84.492188 92.078125 C 85.0625 91.699219 85.660156 91.378906 86.289062 91.117188 C 86.921875 90.855469 87.570312 90.660156 88.238281 90.527344 C 88.910156 90.394531 89.585938 90.328125 90.265625 90.328125 C 90.949219 90.328125 91.625 90.394531 92.292969 90.527344 C 92.960938 90.660156 93.613281 90.855469 94.242188 91.117188 C 94.875 91.378906 95.472656 91.699219 96.039062 92.078125 C 96.605469 92.457031 97.132812 92.886719 97.613281 93.371094 C 98.097656 93.851562 98.527344 94.378906 98.90625 94.945312 C 99.285156 95.511719 99.605469 96.109375 99.867188 96.742188 C 100.128906 97.371094 100.324219 98.019531 100.457031 98.691406 C 100.589844 99.359375 100.65625 100.035156 100.65625 100.71875 Z M 100.65625 100.71875 " fill-opacity="1" fill-rule="nonzero"/><path fill="#ffffff" d="M 163 100.71875 C 163 101.398438 162.933594 102.074219 162.800781 102.746094 C 162.667969 103.414062 162.472656 104.0625 162.210938 104.695312 C 161.949219 105.324219 161.628906 105.921875 161.25 106.488281 C 160.871094 107.058594 160.441406 107.582031 159.957031 108.066406 C 159.476562 108.546875 158.949219 108.976562 158.382812 109.355469 C 157.816406 109.734375 157.21875 110.054688 156.585938 110.316406 C 155.957031 110.578125 155.308594 110.773438 154.636719 110.910156 C 153.96875 111.042969 153.292969 111.109375 152.609375 111.109375 C 151.929688 111.109375 151.253906 111.042969 150.582031 110.910156 C 149.914062 110.773438 149.265625 110.578125 148.632812 110.316406 C 148.003906 110.054688 147.40625 109.734375 146.839844 109.355469 C 146.269531 108.976562 145.746094 108.546875 145.261719 108.066406 C 144.78125 107.582031 144.351562 107.058594 143.972656 106.488281 C 143.59375 105.921875 143.273438 105.324219 143.011719 104.695312 C 142.75 104.0625 142.554688 103.414062 142.417969 102.746094 C 142.285156 102.074219 142.21875 101.398438 142.21875 100.71875 C 142.21875 100.035156 142.285156 99.359375 142.417969 98.691406 C 142.554688 98.019531 142.75 97.371094 143.011719 96.742188 C 143.273438 96.109375 143.59375 95.511719 143.972656 94.945312 C 144.351562 94.378906 144.78125 93.851562 145.261719 93.371094 C 145.746094 92.886719 146.269531 92.457031 146.839844 92.078125 C 147.40625 91.699219 148.003906 91.378906 148.632812 91.117188 C 149.265625 90.855469 149.914062 90.660156 150.582031 90.527344 C 151.253906 90.394531 151.929688 90.328125 152.609375 90.328125 C 153.292969 90.328125 153.96875 90.394531 154.636719 90.527344 C 155.308594 90.660156 155.957031 90.855469 156.585938 91.117188 C 157.21875 91.378906 157.816406 91.699219 158.382812 92.078125 C 158.949219 92.457031 159.476562 92.886719 159.957031 93.371094 C 160.441406 93.851562 160.871094 94.378906 161.25 94.945312 C 161.628906 95.511719 161.949219 96.109375 162.210938 96.742188 C 162.472656 97.371094 162.667969 98.019531 162.800781 98.691406 C 162.933594 99.359375 163 100.035156 163 100.71875 Z M 163 100.71875 " fill-opacity="1" fill-rule="nonzero"/><path fill="#ffffff" d="M 73.683594 148.484375 C 73.441406 148.242188 73.226562 147.980469 73.035156 147.695312 C 72.847656 147.410156 72.6875 147.113281 72.558594 146.796875 C 72.425781 146.480469 72.328125 146.15625 72.261719 145.824219 C 72.195312 145.488281 72.160156 145.148438 72.160156 144.808594 C 72.160156 144.46875 72.195312 144.128906 72.261719 143.796875 C 72.328125 143.460938 72.425781 143.136719 72.558594 142.820312 C 72.6875 142.503906 72.847656 142.207031 73.035156 141.921875 C 73.226562 141.640625 73.441406 141.375 73.683594 141.136719 C 73.925781 140.894531 74.1875 140.679688 74.46875 140.488281 C 74.753906 140.300781 75.054688 140.140625 75.367188 140.007812 C 75.683594 139.878906 76.007812 139.78125 76.34375 139.714844 C 76.675781 139.648438 77.015625 139.613281 77.355469 139.613281 C 77.699219 139.613281 78.035156 139.648438 78.371094 139.714844 C 78.703125 139.78125 79.03125 139.878906 79.34375 140.007812 C 79.660156 140.140625 79.960938 140.300781 80.242188 140.488281 C 80.527344 140.679688 80.789062 140.894531 81.03125 141.136719 C 82.355469 142.457031 83.742188 143.710938 85.1875 144.894531 C 86.636719 146.082031 88.136719 147.195312 89.695312 148.230469 C 91.25 149.269531 92.855469 150.230469 94.503906 151.109375 C 96.15625 151.992188 97.847656 152.789062 99.574219 153.503906 C 101.304688 154.21875 103.066406 154.847656 104.855469 155.390625 C 106.644531 155.933594 108.460938 156.386719 110.292969 156.75 C 112.128906 157.117188 113.976562 157.390625 115.839844 157.574219 C 117.703125 157.757812 119.570312 157.847656 121.441406 157.847656 C 123.3125 157.847656 125.179688 157.757812 127.039062 157.574219 C 128.902344 157.390625 130.75 157.117188 132.585938 156.75 C 134.421875 156.386719 136.234375 155.933594 138.027344 155.390625 C 139.816406 154.847656 141.578125 154.21875 143.304688 153.503906 C 145.035156 152.789062 146.722656 151.992188 148.375 151.109375 C 150.027344 150.230469 151.628906 149.269531 153.1875 148.230469 C 154.742188 147.195312 156.246094 146.082031 157.691406 144.894531 C 159.140625 143.710938 160.527344 142.457031 161.851562 141.136719 C 162.09375 140.894531 162.355469 140.679688 162.636719 140.488281 C 162.921875 140.300781 163.222656 140.140625 163.535156 140.007812 C 163.851562 139.878906 164.175781 139.78125 164.511719 139.714844 C 164.84375 139.648438 165.183594 139.613281 165.523438 139.613281 C 165.867188 139.613281 166.203125 139.648438 166.539062 139.714844 C 166.871094 139.78125 167.199219 139.878906 167.511719 140.007812 C 167.828125 140.140625 168.128906 140.300781 168.410156 140.488281 C 168.695312 140.679688 168.957031 140.894531 169.199219 141.136719 C 169.4375 141.375 169.65625 141.640625 169.84375 141.921875 C 170.035156 142.207031 170.195312 142.503906 170.324219 142.820312 C 170.453125 143.136719 170.554688 143.460938 170.621094 143.796875 C 170.6875 144.128906 170.71875 144.46875 170.71875 144.808594 C 170.71875 145.148438 170.6875 145.488281 170.621094 145.824219 C 170.554688 146.15625 170.453125 146.480469 170.324219 146.796875 C 170.195312 147.113281 170.035156 147.410156 169.84375 147.695312 C 169.65625 147.980469 169.4375 148.242188 169.199219 148.484375 C 168.414062 149.261719 167.613281 150.023438 166.796875 150.765625 C 165.976562 151.507812 165.140625 152.226562 164.285156 152.925781 C 163.429688 153.628906 162.558594 154.304688 161.667969 154.964844 C 160.78125 155.621094 159.878906 156.257812 158.957031 156.871094 C 158.039062 157.484375 157.105469 158.074219 156.15625 158.640625 C 155.210938 159.207031 154.246094 159.75 153.273438 160.273438 C 152.296875 160.792969 151.3125 161.289062 150.3125 161.761719 C 149.3125 162.230469 148.300781 162.679688 147.28125 163.101562 C 146.261719 163.523438 145.230469 163.921875 144.1875 164.292969 C 143.148438 164.664062 142.097656 165.011719 141.042969 165.332031 C 139.984375 165.652344 138.917969 165.945312 137.847656 166.214844 C 136.773438 166.480469 135.695312 166.722656 134.613281 166.9375 C 133.53125 167.152344 132.441406 167.34375 131.347656 167.503906 C 130.253906 167.667969 129.160156 167.800781 128.058594 167.910156 C 126.957031 168.019531 125.855469 168.097656 124.753906 168.152344 C 123.648438 168.207031 122.546875 168.234375 121.441406 168.234375 C 120.335938 168.234375 119.230469 168.207031 118.128906 168.152344 C 117.023438 168.097656 115.921875 168.019531 114.824219 167.910156 C 113.722656 167.800781 112.625 167.667969 111.535156 167.503906 C 110.441406 167.34375 109.351562 167.152344 108.269531 166.9375 C 107.183594 166.722656 106.105469 166.480469 105.035156 166.214844 C 103.960938 165.945312 102.898438 165.652344 101.839844 165.332031 C 100.78125 165.011719 99.734375 164.664062 98.691406 164.292969 C 97.652344 163.921875 96.621094 163.523438 95.601562 163.101562 C 94.578125 162.679688 93.570312 162.230469 92.570312 161.761719 C 91.570312 161.289062 90.582031 160.792969 89.609375 160.273438 C 88.632812 159.75 87.671875 159.207031 86.722656 158.640625 C 85.777344 158.074219 84.839844 157.484375 83.921875 156.871094 C 83.003906 156.257812 82.097656 155.621094 81.210938 154.964844 C 80.324219 154.304688 79.453125 153.628906 78.597656 152.925781 C 77.742188 152.226562 76.90625 151.507812 76.085938 150.765625 C 75.265625 150.023438 74.464844 149.261719 73.683594 148.484375 Z M 73.683594 148.484375 " fill-opacity="1" fill-rule="nonzero"/></svg>