<svg xmlns="http://www.w3.org/2000/svg" xmlns:xlink="http://www.w3.org/1999/xlink" width="330" zoomAndPan="magnify" viewBox="0 0 247.5 247.500006" height="330" preserveAspectRatio="xMidYMid meet" version="1.0"><defs><clipPath id="92b7b17d25"><path d="M 0 0 L 246.988281 0 L 246.988281 246.988281 L 0 246.988281 Z M 0 0 " clip-rule="nonzero"/></clipPath><clipPath id="76f5ddfb18"><path d="M 123.496094 0 C 55.289062 0 0 55.289062 0 123.496094 C 0 191.699219 55.289062 246.988281 123.496094 246.988281 C 191.699219 246.988281 246.988281 191.699219 246.988281 123.496094 C 246.988281 55.289062 191.699219 0 123.496094 0 Z M 123.496094 0 " clip-rule="nonzero"/></clipPath><clipPath id="88ba1f3855"><path d="M 26.929688 26.929688 L 220.039062 26.929688 L 220.039062 220.039062 L 26.929688 220.039062 Z M 26.929688 26.929688 " clip-rule="nonzero"/></clipPath></defs><g clip-path="url(#92b7b17d25)"><g clip-path="url(#76f5ddfb18)"><path fill="#bc1823" d="M 0 0 L 246.988281 0 L 246.988281 246.988281 L 0 246.988281 Z M 0 0 " fill-opacity="1" fill-rule="nonzero"/></g></g><g clip-path="url(#88ba1f3855)"><path fill="#ffffff" d="M 123.492188 26.929688 C 70.273438 26.929688 26.929688 70.273438 26.929688 123.492188 C 26.929688 176.707031 70.273438 220.050781 123.492188 220.050781 C 176.707031 220.050781 220.050781 176.707031 220.050781 123.492188 C 220.050781 70.273438 176.707031 26.929688 123.492188 26.929688 Z M 123.492188 211.46875 C 74.996094 211.46875 35.511719 171.984375 35.511719 123.492188 C 35.511719 74.996094 74.996094 35.511719 123.492188 35.511719 C 171.984375 35.511719 211.46875 74.996094 211.46875 123.492188 C 211.46875 171.984375 171.984375 211.46875 123.492188 211.46875 Z M 167.480469 169.839844 C 169.195312 171.554688 169.195312 174.132812 167.480469 175.847656 C 166.621094 176.707031 165.546875 177.136719 164.476562 177.136719 C 163.402344 177.136719 162.328125 176.707031 161.472656 175.847656 C 151.386719 165.761719 137.867188 160.183594 123.492188 160.183594 C 109.113281 160.183594 95.59375 165.761719 85.511719 175.847656 C 83.792969 177.566406 81.21875 177.566406 79.5 175.847656 C 77.785156 174.132812 77.785156 171.554688 79.5 169.839844 C 91.304688 158.039062 106.96875 151.601562 123.492188 151.601562 C 140.011719 151.601562 155.675781 158.039062 167.480469 169.839844 Z M 82.71875 134.21875 C 76.710938 134.21875 71.992188 129.5 71.992188 123.492188 C 71.992188 117.484375 76.710938 112.761719 82.71875 112.761719 C 88.730469 112.761719 93.449219 117.484375 93.449219 123.492188 C 93.449219 129.5 88.730469 134.21875 82.71875 134.21875 Z M 174.988281 123.492188 C 174.988281 129.5 170.269531 134.21875 164.261719 134.21875 C 158.253906 134.21875 153.53125 129.5 153.53125 123.492188 C 153.53125 117.484375 158.253906 112.761719 164.261719 112.761719 C 170.269531 112.761719 174.988281 117.484375 174.988281 123.492188 Z M 91.519531 108.039062 L 65.769531 95.167969 C 63.621094 94.09375 62.765625 91.519531 63.835938 89.371094 C 64.910156 87.226562 67.484375 86.367188 69.632812 87.441406 L 95.378906 100.316406 C 97.527344 101.390625 98.386719 103.964844 97.3125 106.109375 C 96.453125 107.613281 94.953125 108.46875 93.449219 108.46875 C 92.804688 108.46875 92.160156 108.253906 91.519531 108.039062 Z M 183.144531 89.371094 C 184.214844 91.519531 183.359375 94.09375 181.210938 95.167969 L 155.464844 108.039062 C 154.820312 108.253906 154.175781 108.46875 153.53125 108.46875 C 152.03125 108.46875 150.527344 107.613281 149.667969 106.109375 C 148.597656 103.964844 149.453125 101.390625 151.601562 100.316406 L 177.351562 87.441406 C 179.496094 86.367188 182.070312 87.226562 183.144531 89.371094 Z M 183.144531 89.371094 " fill-opacity="1" fill-rule="nonzero"/></g></svg>