<svg xmlns="http://www.w3.org/2000/svg" xmlns:xlink="http://www.w3.org/1999/xlink" width="330" zoomAndPan="magnify" viewBox="0 0 247.5 247.500006" height="330" preserveAspectRatio="xMidYMid meet" version="1.0"><defs><clipPath id="4bf848a431"><path d="M 0 0 L 246.988281 0 L 246.988281 246.988281 L 0 246.988281 Z M 0 0 " clip-rule="nonzero"/></clipPath><clipPath id="c8d69185ec"><path d="M 123.496094 0 C 55.289062 0 0 55.289062 0 123.496094 C 0 191.699219 55.289062 246.988281 123.496094 246.988281 C 191.699219 246.988281 246.988281 191.699219 246.988281 123.496094 C 246.988281 55.289062 191.699219 0 123.496094 0 Z M 123.496094 0 " clip-rule="nonzero"/></clipPath><clipPath id="cbeb0c9ffb"><path d="M 22.355469 22.355469 L 224.445312 22.355469 L 224.445312 224.445312 L 22.355469 224.445312 Z M 22.355469 22.355469 " clip-rule="nonzero"/></clipPath></defs><g clip-path="url(#4bf848a431)"><g clip-path="url(#c8d69185ec)"><path fill="#2e2c2b" d="M 0 0 L 246.988281 0 L 246.988281 246.988281 L 0 246.988281 Z M 0 0 " fill-opacity="1" fill-rule="nonzero"/></g></g><g clip-path="url(#cbeb0c9ffb)"><path fill="#ffffff" d="M 123.488281 22.355469 C 67.753906 22.355469 22.355469 67.753906 22.355469 123.488281 C 22.355469 179.222656 67.753906 224.621094 123.488281 224.621094 C 179.222656 224.621094 224.621094 179.222656 224.621094 123.488281 C 224.621094 67.753906 179.222656 22.355469 123.488281 22.355469 Z M 123.488281 31.34375 C 163.269531 31.34375 197.203125 56.742188 210.015625 92.023438 L 36.964844 92.023438 C 49.773438 56.742188 83.710938 31.34375 123.488281 31.34375 Z M 123.488281 215.632812 C 72.695312 215.632812 31.34375 174.28125 31.34375 123.488281 C 31.34375 115.847656 32.242188 108.207031 34.042969 101.015625 L 51.570312 101.015625 L 51.570312 112.25 C 51.570312 128.433594 64.605469 141.46875 80.789062 141.46875 C 96.96875 141.46875 110.003906 128.433594 110.003906 112.25 L 110.003906 101.015625 L 136.972656 101.015625 L 136.972656 112.25 C 136.972656 128.433594 150.007812 141.46875 166.191406 141.46875 C 182.371094 141.46875 195.40625 128.433594 195.40625 112.25 L 195.40625 101.015625 L 212.9375 101.015625 C 214.734375 108.207031 215.632812 115.847656 215.632812 123.488281 C 215.632812 174.28125 174.28125 215.632812 123.488281 215.632812 Z M 169.5625 163.269531 C 171.359375 165.066406 171.359375 167.761719 169.5625 169.5625 C 157.199219 181.921875 140.792969 188.664062 123.488281 188.664062 C 106.183594 188.664062 89.777344 181.921875 77.417969 169.5625 C 75.617188 167.761719 75.617188 165.066406 77.417969 163.269531 C 79.214844 161.46875 81.910156 161.46875 83.710938 163.269531 C 94.273438 173.832031 108.429688 179.675781 123.488281 179.675781 C 138.546875 179.675781 152.703125 173.832031 163.269531 163.269531 C 165.066406 161.46875 167.761719 161.46875 169.5625 163.269531 Z M 169.5625 163.269531 " fill-opacity="1" fill-rule="nonzero"/></g></svg>