<svg xmlns="http://www.w3.org/2000/svg" xmlns:xlink="http://www.w3.org/1999/xlink" width="324" zoomAndPan="magnify" viewBox="0 0 242.87999 242.999999" height="324" preserveAspectRatio="xMidYMid meet" version="1.0"><defs><clipPath id="120c1f5464"><path d="M 0 0.0585938 L 242.761719 0.0585938 L 242.761719 242.9375 L 0 242.9375 Z M 0 0.0585938 " clip-rule="nonzero"/></clipPath><clipPath id="f84ccfced2"><path d="M 121.441406 0.0585938 C 54.371094 0.0585938 0 54.429688 0 121.5 C 0 188.570312 54.371094 242.941406 121.441406 242.941406 C 188.507812 242.941406 242.878906 188.570312 242.878906 121.5 C 242.878906 54.429688 188.507812 0.0585938 121.441406 0.0585938 Z M 121.441406 0.0585938 " clip-rule="nonzero"/></clipPath><clipPath id="0b5aeffb82"><path d="M 23.839844 22.832031 L 218.746094 22.832031 L 218.746094 217.734375 L 23.839844 217.734375 Z M 23.839844 22.832031 " clip-rule="nonzero"/></clipPath></defs><g clip-path="url(#120c1f5464)"><g clip-path="url(#f84ccfced2)"><path fill="#d67ea6" d="M 0 0.0585938 L 242.878906 0.0585938 L 242.878906 242.941406 L 0 242.941406 Z M 0 0.0585938 " fill-opacity="1" fill-rule="nonzero"/></g></g><path fill="#ffffff" d="M 167.046875 80.867188 C 165.980469 81.71875 165.050781 83.148438 164.074219 85.105469 C 163.789062 85.675781 163.328125 86.160156 162.714844 86.46875 C 161.214844 87.21875 159.394531 86.609375 158.644531 85.113281 C 156.871094 81.566406 155.191406 79.792969 152.015625 79.792969 C 150.277344 79.792969 148.703125 80.5 147.5625 81.640625 C 146.421875 82.78125 145.71875 84.351562 145.71875 86.089844 C 145.71875 90.015625 147.808594 94.109375 150.941406 98.28125 C 153.746094 102.027344 157.480469 105.90625 161.359375 109.808594 C 165.234375 105.90625 168.96875 102.027344 171.773438 98.28125 C 174.910156 94.109375 176.996094 90.015625 176.996094 86.089844 C 176.996094 84.351562 176.292969 82.78125 175.152344 81.640625 C 174.011719 80.5 172.4375 79.792969 170.699219 79.792969 C 169.089844 79.792969 167.9375 80.152344 167.046875 80.867188 Z M 161.382812 78 C 161.960938 77.296875 162.582031 76.675781 163.261719 76.132812 C 165.285156 74.511719 167.640625 73.703125 170.699219 73.703125 C 174.121094 73.703125 177.21875 75.089844 179.457031 77.332031 C 181.703125 79.574219 183.089844 82.671875 183.089844 86.089844 C 183.089844 91.507812 180.507812 96.757812 176.632812 101.925781 C 172.949219 106.835938 168.230469 111.554688 163.511719 116.273438 C 162.320312 117.460938 160.394531 117.460938 159.203125 116.273438 C 154.484375 111.554688 149.765625 106.835938 146.085938 101.925781 C 142.207031 96.757812 139.625 91.507812 139.625 86.089844 C 139.625 82.671875 141.011719 79.574219 143.257812 77.332031 C 145.496094 75.089844 148.59375 73.703125 152.015625 73.703125 C 156.351562 73.703125 159.117188 75.136719 161.382812 78 " fill-opacity="1" fill-rule="nonzero"/><path fill="#ffffff" d="M 87.226562 80.867188 C 86.164062 81.71875 85.238281 83.148438 84.257812 85.105469 C 83.972656 85.675781 83.511719 86.160156 82.898438 86.46875 C 81.398438 87.21875 79.578125 86.609375 78.828125 85.113281 C 77.054688 81.566406 75.375 79.792969 72.199219 79.792969 C 70.460938 79.792969 68.886719 80.5 67.75 81.640625 C 66.609375 82.78125 65.902344 84.351562 65.902344 86.089844 C 65.902344 90.015625 67.988281 94.109375 71.121094 98.28125 C 73.929688 102.027344 77.664062 105.90625 81.539062 109.808594 C 85.417969 105.90625 89.152344 102.027344 91.960938 98.28125 C 95.089844 94.109375 97.179688 90.015625 97.179688 86.089844 C 97.179688 84.351562 96.476562 82.78125 95.335938 81.640625 C 94.195312 80.5 92.621094 79.792969 90.886719 79.792969 C 89.277344 79.792969 88.121094 80.152344 87.226562 80.867188 Z M 81.566406 78 C 82.144531 77.296875 82.765625 76.675781 83.445312 76.132812 C 85.46875 74.511719 87.820312 73.703125 90.886719 73.703125 C 94.304688 73.703125 97.402344 75.089844 99.644531 77.332031 C 101.886719 79.574219 103.273438 82.671875 103.273438 86.089844 C 103.273438 91.507812 100.691406 96.757812 96.816406 101.925781 C 93.132812 106.835938 88.414062 111.554688 83.695312 116.273438 C 82.503906 117.460938 80.574219 117.460938 79.386719 116.273438 C 74.667969 111.554688 69.949219 106.835938 66.265625 101.925781 C 62.394531 96.757812 59.8125 91.507812 59.8125 86.089844 C 59.8125 82.671875 61.195312 79.574219 63.441406 77.332031 C 65.683594 75.089844 68.777344 73.703125 72.199219 73.703125 C 76.535156 73.703125 79.300781 75.136719 81.566406 78 " fill-opacity="1" fill-rule="nonzero"/><g clip-path="url(#0b5aeffb82)"><path fill="#ffffff" d="M 186.074219 55.691406 C 169.535156 39.152344 146.6875 28.921875 121.449219 28.921875 C 96.210938 28.921875 73.363281 39.152344 56.824219 55.691406 C 40.285156 72.230469 30.054688 95.078125 30.054688 120.316406 C 30.054688 145.554688 40.285156 168.402344 56.824219 184.941406 C 73.363281 201.480469 96.210938 211.710938 121.449219 211.710938 C 146.6875 211.710938 169.535156 201.480469 186.074219 184.941406 C 202.613281 168.402344 212.84375 145.554688 212.84375 120.316406 C 212.84375 95.078125 202.613281 72.230469 186.074219 55.691406 Z M 121.449219 22.832031 C 148.371094 22.832031 172.738281 33.742188 190.382812 51.382812 C 208.023438 69.027344 218.9375 93.398438 218.9375 120.316406 C 218.9375 147.238281 208.023438 171.605469 190.382812 189.25 C 172.738281 206.890625 148.371094 217.800781 121.449219 217.800781 C 94.53125 217.800781 70.160156 206.890625 52.515625 189.25 C 34.875 171.605469 23.964844 147.238281 23.964844 120.316406 C 23.964844 93.398438 34.875 69.027344 52.515625 51.382812 C 70.160156 33.742188 94.53125 22.832031 121.449219 22.832031 " fill-opacity="1" fill-rule="nonzero"/></g><path fill="#ffffff" d="M 71.179688 153.839844 C 70.375 152.367188 70.917969 150.527344 72.390625 149.722656 C 73.863281 148.921875 75.707031 149.464844 76.511719 150.9375 C 80.378906 158.050781 86.695312 164.082031 94.585938 168.304688 C 102.300781 172.433594 111.523438 174.835938 121.449219 174.835938 C 131.375 174.835938 140.597656 172.433594 148.3125 168.304688 C 156.203125 164.082031 162.519531 158.050781 166.390625 150.9375 C 167.191406 149.464844 169.035156 148.921875 170.507812 149.722656 C 171.980469 150.527344 172.523438 152.367188 171.722656 153.839844 C 167.285156 161.992188 160.105469 168.875 151.167969 173.660156 C 142.582031 178.257812 132.375 180.929688 121.449219 180.929688 C 110.523438 180.929688 100.316406 178.257812 91.730469 173.660156 C 82.792969 168.875 75.613281 161.992188 71.179688 153.839844 " fill-opacity="1" fill-rule="nonzero"/></svg>