<svg xmlns="http://www.w3.org/2000/svg" xmlns:xlink="http://www.w3.org/1999/xlink" width="324" zoomAndPan="magnify" viewBox="0 0 242.87999 242.999999" height="324" preserveAspectRatio="xMidYMid meet" version="1.0"><defs><clipPath id="fc59c404ef"><path d="M 0 0.0585938 L 242.761719 0.0585938 L 242.761719 242.9375 L 0 242.9375 Z M 0 0.0585938 " clip-rule="nonzero"/></clipPath><clipPath id="b0828b17bb"><path d="M 121.441406 0.0585938 C 54.371094 0.0585938 0 54.429688 0 121.5 C 0 188.570312 54.371094 242.941406 121.441406 242.941406 C 188.507812 242.941406 242.878906 188.570312 242.878906 121.5 C 242.878906 54.429688 188.507812 0.0585938 121.441406 0.0585938 Z M 121.441406 0.0585938 " clip-rule="nonzero"/></clipPath><clipPath id="c2c8904905"><path d="M 21.195312 21.253906 L 221.34375 21.253906 L 221.34375 221.40625 L 21.195312 221.40625 Z M 21.195312 21.253906 " clip-rule="nonzero"/></clipPath></defs><g clip-path="url(#fc59c404ef)"><g clip-path="url(#b0828b17bb)"><path fill="#8a83a1" d="M 0 0.0585938 L 242.878906 0.0585938 L 242.878906 242.941406 L 0 242.941406 Z M 0 0.0585938 " fill-opacity="1" fill-rule="nonzero"/></g></g><g clip-path="url(#c2c8904905)"><path fill="#ffffff" d="M 173.007812 125.75 L 69.875 125.75 C 67.75 125.75 66.023438 127.472656 66.023438 129.597656 C 66.023438 160.15625 90.886719 185.015625 121.441406 185.015625 C 151.996094 185.015625 176.855469 160.15625 176.855469 129.597656 C 176.855469 127.472656 175.132812 125.75 173.007812 125.75 Z M 121.441406 177.355469 C 96.417969 177.355469 75.847656 157.988281 73.882812 133.488281 L 169.035156 133.488281 C 167.070312 157.988281 146.460938 177.355469 121.441406 177.355469 Z M 121.441406 21.253906 C 66.183594 21.253906 21.195312 66.246094 21.195312 121.5 C 21.195312 176.753906 66.183594 221.746094 121.441406 221.746094 C 176.695312 221.746094 221.683594 176.753906 221.683594 121.5 C 221.683594 66.246094 176.734375 21.253906 121.441406 21.253906 Z M 121.441406 214.046875 C 70.394531 214.046875 28.894531 172.542969 28.894531 121.5 C 28.894531 70.453125 70.394531 28.953125 121.441406 28.953125 C 172.484375 28.953125 213.984375 70.496094 213.984375 121.5 C 213.984375 172.503906 172.484375 214.046875 121.441406 214.046875 Z M 136.195312 106.703125 C 139.925781 108.066406 144.855469 108.828125 150.070312 108.828125 C 160.253906 108.828125 172.164062 105.863281 172.164062 97.480469 L 172.164062 79.917969 C 172.164062 67.726562 162.257812 57.824219 150.070312 57.824219 C 137.878906 57.824219 127.976562 67.726562 127.976562 79.917969 L 127.976562 97.441406 C 127.976562 99.765625 129.019531 104.058594 136.195312 106.703125 Z M 135.675781 79.878906 C 135.675781 71.9375 142.128906 65.484375 150.070312 65.484375 C 158.007812 65.484375 164.464844 71.9375 164.464844 79.878906 L 164.464844 97.441406 C 164.464844 98.402344 159.53125 101.128906 150.070312 101.128906 C 140.648438 101.128906 135.675781 98.402344 135.675781 97.441406 Z M 138.960938 83.285156 C 138.960938 81.160156 140.6875 79.4375 142.8125 79.4375 L 157.289062 79.4375 C 159.414062 79.4375 161.136719 81.160156 161.136719 83.285156 C 161.136719 85.410156 159.414062 87.136719 157.289062 87.136719 L 142.8125 87.136719 C 140.6875 87.136719 138.960938 85.410156 138.960938 83.285156 Z M 74.886719 83.285156 C 74.886719 81.160156 76.609375 79.4375 78.734375 79.4375 L 93.851562 79.4375 L 83.027344 73.824219 C 81.140625 72.859375 80.417969 70.535156 81.382812 68.648438 C 82.34375 66.765625 84.667969 66.042969 86.554688 67.007812 L 111.457031 79.878906 C 111.816406 80.039062 112.097656 80.277344 112.378906 80.558594 C 112.417969 80.597656 112.457031 80.679688 112.539062 80.71875 C 112.777344 81 112.980469 81.28125 113.140625 81.640625 C 113.179688 81.761719 113.257812 81.882812 113.300781 81.964844 C 113.460938 82.402344 113.582031 82.804688 113.582031 83.285156 C 113.582031 83.765625 113.460938 84.207031 113.300781 84.609375 C 113.257812 84.730469 113.21875 84.851562 113.140625 84.929688 C 112.980469 85.25 112.777344 85.570312 112.539062 85.851562 C 112.496094 85.890625 112.457031 85.972656 112.378906 86.011719 C 112.097656 86.292969 111.816406 86.492188 111.457031 86.695312 L 86.554688 99.566406 C 85.992188 99.847656 85.390625 100.007812 84.789062 100.007812 C 83.386719 100.007812 82.0625 99.246094 81.382812 97.921875 C 80.417969 96.039062 81.140625 93.710938 83.027344 92.75 L 93.851562 87.136719 L 78.734375 87.136719 C 76.609375 87.136719 74.886719 85.410156 74.886719 83.285156 Z M 74.886719 83.285156 " fill-opacity="1" fill-rule="nonzero"/></g></svg>