<svg xmlns="http://www.w3.org/2000/svg" xmlns:xlink="http://www.w3.org/1999/xlink" width="351" zoomAndPan="magnify" viewBox="0 0 263.25 263.249989" height="351" preserveAspectRatio="xMidYMid meet" version="1.0"><defs><clipPath id="9f41af58ce"><path d="M 0 0 L 262.445312 0 L 262.445312 262.445312 L 0 262.445312 Z M 0 0 " clip-rule="nonzero"/></clipPath><clipPath id="7776bd312a"><path d="M 131.222656 0 C 58.75 0 0 58.75 0 131.222656 C 0 203.695312 58.75 262.445312 131.222656 262.445312 C 203.695312 262.445312 262.445312 203.695312 262.445312 131.222656 C 262.445312 58.75 203.695312 0 131.222656 0 Z M 131.222656 0 " clip-rule="nonzero"/></clipPath><clipPath id="6dc65e76e1"><path d="M 28.964844 28.964844 L 233.171875 28.964844 L 233.171875 233.171875 L 28.964844 233.171875 Z M 28.964844 28.964844 " clip-rule="nonzero"/></clipPath></defs><g clip-path="url(#9f41af58ce)"><g clip-path="url(#7776bd312a)"><path fill="#daae7a" d="M 0 0 L 262.445312 0 L 262.445312 262.445312 L 0 262.445312 Z M 0 0 " fill-opacity="1" fill-rule="nonzero"/></g></g><g clip-path="url(#6dc65e76e1)"><path fill="#ffffff" d="M 233.425781 131.21875 C 233.425781 187.664062 187.664062 233.449219 131.195312 233.449219 C 74.726562 233.449219 28.964844 187.664062 28.964844 131.21875 C 28.964844 74.773438 74.75 28.988281 131.195312 28.988281 C 187.644531 28.988281 233.425781 74.773438 233.425781 131.21875 Z M 131.195312 35.601562 C 78.394531 35.601562 35.582031 78.417969 35.582031 131.21875 C 35.582031 184.019531 78.394531 226.835938 131.195312 226.835938 C 184 226.835938 226.8125 184.019531 226.8125 131.21875 C 226.8125 78.417969 184 35.601562 131.195312 35.601562 Z M 94.097656 168.429688 C 94.097656 168.429688 85.074219 172.703125 81.902344 176.507812 C 81.902344 176.507812 79.519531 178.394531 81.902344 181.726562 C 81.902344 181.726562 84.128906 183.886719 87.484375 180.464844 C 87.484375 180.464844 99.8125 168.902344 128 167.484375 C 128 167.484375 151.085938 165.59375 176.148438 181.1875 C 176.148438 181.1875 179.769531 183.164062 180.242188 179.046875 C 180.242188 179.046875 179.722656 175.402344 176.753906 173.355469 C 176.753906 173.355469 166.742188 164.179688 145.707031 161.164062 C 145.707031 161.140625 118.484375 156.078125 94.097656 168.429688 Z M 88.292969 118.351562 C 95.15625 118.351562 100.710938 108.992188 100.710938 97.472656 C 100.710938 85.953125 95.15625 76.59375 88.292969 76.59375 C 81.429688 76.59375 75.875 85.953125 75.875 97.472656 C 75.875 108.992188 81.429688 118.351562 88.292969 118.351562 Z M 170.925781 118.351562 C 177.789062 118.351562 183.347656 108.992188 183.347656 97.472656 C 183.347656 85.953125 177.789062 76.59375 170.925781 76.59375 C 164.066406 76.59375 158.507812 85.953125 158.507812 97.472656 C 158.507812 108.992188 164.066406 118.351562 170.925781 118.351562 Z M 170.925781 118.351562 " fill-opacity="1" fill-rule="nonzero"/></g></svg>